<svg width="73" height="73" viewBox="0 0 73 73" fill="none" xmlns="http://www.w3.org/2000/svg">
<path d="M73 36.4635C73 16.3337 56.648 0 36.5 0C16.352 0 0 16.3337 0 36.4635C0 47.5504 5.037 57.5422 12.921 64.2491C12.994 64.3221 13.067 64.3221 13.067 64.3951C13.724 64.9061 14.381 65.4171 15.111 65.9281C15.476 66.1471 15.768 66.4346 16.133 66.7266C22.1649 70.8162 29.2854 73.0016 36.573 73C43.8606 73.0016 50.9811 70.8162 57.013 66.7266C57.378 66.5076 57.67 66.2201 58.035 65.9966C58.692 65.4901 59.422 64.9791 60.079 64.4681C60.152 64.3951 60.225 64.3951 60.225 64.3221C67.963 57.5377 73 47.5504 73 36.4635ZM36.5 68.4056C29.638 68.4056 23.36 66.2156 18.177 62.5701C18.25 61.9861 18.396 61.4067 18.542 60.8227C18.977 59.24 19.6149 57.7202 20.44 56.3013C21.243 54.9143 22.192 53.6733 23.36 52.5783C24.455 51.4833 25.769 50.4658 27.083 49.6628C28.47 48.8598 29.93 48.2758 31.536 47.8378C33.1545 47.4016 34.8237 47.1822 36.5 47.1854C41.4761 47.1501 46.2694 49.0589 49.859 52.5053C51.538 54.1843 52.852 56.1553 53.801 58.4137C54.312 59.7277 54.677 61.1147 54.896 62.5701C49.5085 66.3577 43.0857 68.3951 36.5 68.4056ZM25.331 34.6431C24.6878 33.1704 24.3643 31.578 24.382 29.9711C24.382 28.3696 24.674 26.7636 25.331 25.3036C25.988 23.8436 26.864 22.5342 27.959 21.4392C29.054 20.3442 30.368 19.4728 31.828 18.8158C33.288 18.1588 34.894 17.8667 36.5 17.8667C38.179 17.8667 39.712 18.1588 41.172 18.8158C42.632 19.4728 43.946 20.3487 45.041 21.4392C46.136 22.5342 47.012 23.8482 47.669 25.3036C48.326 26.7636 48.618 28.3696 48.618 29.9711C48.618 31.6501 48.326 33.1831 47.669 34.6385C47.0349 36.0769 46.1444 37.3879 45.041 38.5075C43.921 39.6093 42.61 40.4982 41.172 41.1309C38.1554 42.3706 34.7716 42.3706 31.755 41.1309C30.317 40.4982 29.006 39.6093 27.886 38.5075C26.781 37.4042 25.9118 36.0925 25.331 34.6431ZM59.203 58.8517C59.203 58.7057 59.13 58.6327 59.13 58.4867C58.412 56.2028 57.3538 54.0402 55.991 52.0718C54.6269 50.0889 52.9505 48.3401 51.027 46.8934C49.558 45.7882 47.9657 44.8573 46.282 44.1194C47.048 43.6141 47.7577 43.0282 48.399 42.3719C49.4873 41.2975 50.4431 40.0966 51.246 38.7949C52.8628 36.1387 53.6977 33.0804 53.655 29.9711C53.6776 27.6693 53.2305 25.3872 52.341 23.2642C51.4628 21.2185 50.1988 19.3612 48.618 17.7938C47.0396 16.2426 45.1819 15.0042 43.143 14.1437C41.0164 13.2559 38.7313 12.8103 36.427 12.8343C34.1223 12.8118 31.8372 13.2589 29.711 14.1483C27.6545 15.0069 25.7923 16.2716 24.236 17.8667C22.6849 19.4435 21.4465 21.2997 20.586 23.3372C19.6965 25.4602 19.2494 27.7423 19.272 30.0441C19.272 31.6501 19.491 33.1831 19.929 34.6385C20.367 36.1715 20.951 37.5585 21.754 38.8679C22.484 40.1819 23.506 41.3499 24.601 42.4449C25.258 43.1019 25.988 43.6814 26.791 44.1924C25.1021 44.95 23.5093 45.9057 22.046 47.0394C20.148 48.4994 18.469 50.2468 17.082 52.1448C15.7053 54.105 14.646 56.2698 13.943 58.5597C13.87 58.7057 13.87 58.8517 13.87 58.9247C8.103 53.0892 4.526 45.2144 4.526 36.4635C4.526 18.8888 18.907 4.52144 36.5 4.52144C54.093 4.52144 68.474 18.8888 68.474 36.4635C68.4644 44.8583 65.1311 52.9078 59.203 58.8517Z" fill="black"/>
</svg>
