<svg width="70" height="70" viewBox="0 0 70 70" fill="none" xmlns="http://www.w3.org/2000/svg">
<path d="M35 22.2727C27.9682 22.2727 22.2727 27.9682 22.2727 35C22.2727 42.0318 27.9682 47.7273 35 47.7273C42.0318 47.7273 47.7273 42.0318 47.7273 35C47.7273 27.9682 42.0318 22.2727 35 22.2727ZM63.4455 31.8182C62.7247 25.3658 59.8314 19.3503 55.2405 14.7595C50.6497 10.1686 44.6342 7.27527 38.1818 6.55455V0H31.8182V6.55455C25.3658 7.27527 19.3503 10.1686 14.7595 14.7595C10.1686 19.3503 7.27527 25.3658 6.55455 31.8182H0V38.1818H6.55455C7.27527 44.6342 10.1686 50.6497 14.7595 55.2405C19.3503 59.8314 25.3658 62.7247 31.8182 63.4455V70H38.1818V63.4455C44.6342 62.7247 50.6497 59.8314 55.2405 55.2405C59.8314 50.6497 62.7247 44.6342 63.4455 38.1818H70V31.8182H63.4455ZM35 57.2727C22.6864 57.2727 12.7273 47.3136 12.7273 35C12.7273 22.6864 22.6864 12.7273 35 12.7273C47.3136 12.7273 57.2727 22.6864 57.2727 35C57.2727 47.3136 47.3136 57.2727 35 57.2727Z" fill="black"/>
</svg>
